{"asset":{"generator":"Khronos glTF Blender I/O v5.1.18","version":"2.0"},"scene":0,"scenes":[{"extras":{"units":"mm"},"name":"Scene","nodes":[82]}],"nodes":[{"extras":{"partID":"input"},"mesh":0,"name":"input-collar"},{"extras":{"partID":"input"},"mesh":1,"name":"input-hub"},{"extras":{"partID":"input"},"mesh":2,"name":"input-index","translation":[49.79999923706055,3.25,0]},{"extras":{"partID":"input"},"mesh":3,"name":"input-rim"},{"extras":{"partID":"input"},"mesh":4,"name":"input-shaft"},{"extras":{"partID":"input"},"mesh":5,"name":"input-shoulder"},{"extras":{"partID":"input"},"mesh":6,"name":"input-spoke-0","translation":[23.200000762939453,0,0]},{"extras":{"partID":"input"},"mesh":7,"name":"input-spoke-1","rotation":[0,0.5,0,0.8660253882408142],"translation":[11.599998474121094,0,-20.09178924560547]},{"extras":{"partID":"input"},"mesh":8,"name":"input-spoke-2","rotation":[0,0.8660253882408142,0,0.4999999701976776],"translation":[-11.599998474121094,0,-20.09178924560547]},{"extras":{"partID":"input"},"mesh":9,"name":"input-spoke-3","rotation":[0,-1,0,4.371138828673793e-08],"translation":[-23.199996948242188,0,0]},{"extras":{"partID":"input"},"mesh":10,"name":"input-spoke-4","rotation":[0,-0.8660253882408142,0,0.5],"translation":[-11.599998474121094,0,20.09178924560547]},{"extras":{"partID":"input"},"mesh":11,"name":"input-spoke-5","rotation":[0,-0.5,0,0.8660253882408142],"translation":[11.599998474121094,0,20.09178924560547]},{"children":[0,1,2,3,4,5,6,7,8,9,10,11],"extras":{"partID":"input"},"name":"input","translation":[-75,0,0]},{"extras":{"partID":"idler"},"mesh":12,"name":"idler-collar"},{"extras":{"partID":"idler"},"mesh":13,"name":"idler-hub"},{"extras":{"partID":"idler"},"mesh":14,"name":"idler-index","translation":[33.20000076293945,3.25,0]},{"extras":{"partID":"idler"},"mesh":15,"name":"idler-rim"},{"extras":{"partID":"idler"},"mesh":16,"name":"idler-shaft"},{"extras":{"partID":"idler"},"mesh":17,"name":"idler-shoulder"},{"extras":{"partID":"idler"},"mesh":18,"name":"idler-spoke-0","translation":[16.299999237060547,0,0]},{"extras":{"partID":"idler"},"mesh":19,"name":"idler-spoke-1","rotation":[0,0.5,0,0.8660253882408142],"translation":[8.150001525878906,0,-14.11621379852295]},{"extras":{"partID":"idler"},"mesh":20,"name":"idler-spoke-2","rotation":[0,0.8660253882408142,0,0.4999999701976776],"translation":[-8.149999618530273,0,-14.11621379852295]},{"extras":{"partID":"idler"},"mesh":21,"name":"idler-spoke-3","rotation":[0,-1,0,4.371138828673793e-08],"translation":[-16.299999237060547,0,0]},{"extras":{"partID":"idler"},"mesh":22,"name":"idler-spoke-4","rotation":[0,-0.8660253882408142,0,0.5],"translation":[-8.149999618530273,0,14.11621379852295]},{"extras":{"partID":"idler"},"mesh":23,"name":"idler-spoke-5","rotation":[0,-0.5,0,0.8660253882408142],"translation":[8.150001525878906,0,14.11621379852295]},{"children":[13,14,15,16,17,18,19,20,21,22,23,24],"extras":{"partID":"idler"},"name":"idler","translation":[25,0,0]},{"extras":{"partID":"output"},"mesh":24,"name":"output-collar"},{"extras":{"partID":"output"},"mesh":25,"name":"output-hub"},{"extras":{"partID":"output"},"mesh":26,"name":"output-index","translation":[19.919998168945312,3.25,0]},{"extras":{"partID":"output"},"mesh":27,"name":"output-rim"},{"extras":{"partID":"output"},"mesh":28,"name":"output-shaft"},{"extras":{"partID":"output"},"mesh":29,"name":"output-shoulder"},{"extras":{"partID":"output"},"mesh":30,"name":"output-spoke-0","translation":[10.779998779296875,0,0]},{"extras":{"partID":"output"},"mesh":31,"name":"output-spoke-1","rotation":[0,0.5,0,0.8660253882408142],"translation":[5.3899993896484375,0,-9.335753440856934]},{"extras":{"partID":"output"},"mesh":32,"name":"output-spoke-2","rotation":[0,0.8660253882408142,0,0.4999999701976776],"translation":[-5.3899993896484375,0,-9.335753440856934]},{"extras":{"partID":"output"},"mesh":33,"name":"output-spoke-3","rotation":[0,-1,0,4.371138828673793e-08],"translation":[-10.779998779296875,0,0]},{"extras":{"partID":"output"},"mesh":34,"name":"output-spoke-4","rotation":[0,-0.8660253882408142,0,0.5],"translation":[-5.3899993896484375,0,9.335753440856934]},{"extras":{"partID":"output"},"mesh":35,"name":"output-spoke-5","rotation":[0,-0.5,0,0.8660253882408142],"translation":[5.3899993896484375,0,9.335753440856934]},{"children":[26,27,28,29,30,31,32,33,34,35,36,37],"extras":{"partID":"output"},"name":"output","translation":[89,0,0]},{"extras":{"partID":"base"},"mesh":36,"name":"base-rail","translation":[0,-13,16]},{"extras":{"partID":"base"},"mesh":37,"name":"base-rail.001","translation":[0,-13,-16]},{"extras":{"partID":"base"},"mesh":38,"name":"bearing-75.0-12","translation":[-75,0,0]},{"extras":{"partID":"base"},"mesh":39,"name":"bearing-web","translation":[-75,-10,10]},{"extras":{"partID":"base"},"mesh":40,"name":"bearing-web.001","translation":[-75,-10,-10]},{"extras":{"partID":"base"},"mesh":41,"name":"bearing-web.004","translation":[25,-10,10]},{"extras":{"partID":"base"},"mesh":42,"name":"bearing-web.005","translation":[25,-10,-10]},{"extras":{"partID":"base"},"mesh":43,"name":"bearing-web.008","translation":[89,-10,10]},{"extras":{"partID":"base"},"mesh":44,"name":"bearing-web.009","translation":[89,-10,-10]},{"extras":{"partID":"base"},"mesh":45,"name":"bearing25.0-12","translation":[25,0,0]},{"extras":{"partID":"base"},"mesh":46,"name":"bearing89.0-12","translation":[89,0,0]},{"extras":{"partID":"base"},"mesh":47,"name":"chassis"},{"extras":{"partID":"base"},"mesh":48,"name":"housing-75.0-12","translation":[-75,0,0]},{"extras":{"partID":"base"},"mesh":49,"name":"housing25.0-12","translation":[25,0,0]},{"extras":{"partID":"base"},"mesh":50,"name":"housing89.0-12","translation":[89,0,0]},{"extras":{"partID":"base"},"mesh":51,"name":"post","translation":[-138,0,10]},{"extras":{"partID":"base"},"mesh":52,"name":"post.001","translation":[-138,0,-10]},{"extras":{"partID":"base"},"mesh":53,"name":"post.002","translation":[138,0,10]},{"extras":{"partID":"base"},"mesh":54,"name":"post.003","translation":[138,0,-10]},{"children":[39,40,41,42,43,44,45,46,47,48,49,50,51,52,53,54,55,56,57],"extras":{"partID":"base"},"name":"base"},{"extras":{"partID":"bridge"},"mesh":55,"name":"bearing-75.021","translation":[-75,0,0]},{"extras":{"partID":"bridge"},"mesh":56,"name":"bearing-web.002","translation":[-75,23,10]},{"extras":{"partID":"bridge"},"mesh":57,"name":"bearing-web.003","translation":[-75,23,-10]},{"extras":{"partID":"bridge"},"mesh":58,"name":"bearing-web.006","translation":[25,23,10]},{"extras":{"partID":"bridge"},"mesh":59,"name":"bearing-web.007","translation":[25,23,-10]},{"extras":{"partID":"bridge"},"mesh":60,"name":"bearing-web.010","translation":[89,23,10]},{"extras":{"partID":"bridge"},"mesh":61,"name":"bearing-web.011","translation":[89,23,-10]},{"extras":{"partID":"bridge"},"mesh":62,"name":"bearing25.021","translation":[25,0,0]},{"extras":{"partID":"bridge"},"mesh":63,"name":"bearing89.021","translation":[89,0,0]},{"extras":{"partID":"bridge"},"mesh":64,"name":"bridge-rail","translation":[0,21,10]},{"extras":{"partID":"bridge"},"mesh":65,"name":"bridge-rail.001","translation":[0,21,-10]},{"extras":{"partID":"bridge"},"mesh":66,"name":"housing-75.021","translation":[-75,0,0]},{"extras":{"partID":"bridge"},"mesh":67,"name":"housing25.021","translation":[25,0,0]},{"extras":{"partID":"bridge"},"mesh":68,"name":"housing89.021","translation":[89,0,0]},{"extras":{"partID":"bridge"},"mesh":69,"name":"screw","translation":[-138,0,10]},{"extras":{"partID":"bridge"},"mesh":70,"name":"screw-slot","translation":[-138,29,10]},{"extras":{"partID":"bridge"},"mesh":71,"name":"screw-slot.001","translation":[-138,29,-10]},{"extras":{"partID":"bridge"},"mesh":72,"name":"screw-slot.002","translation":[138,29,10]},{"extras":{"partID":"bridge"},"mesh":73,"name":"screw-slot.003","translation":[138,29,-10]},{"extras":{"partID":"bridge"},"mesh":74,"name":"screw.001","translation":[-138,0,-10]},{"extras":{"partID":"bridge"},"mesh":75,"name":"screw.002","translation":[138,0,10]},{"extras":{"partID":"bridge"},"mesh":76,"name":"screw.003","translation":[138,0,-10]},{"children":[59,60,61,62,63,64,65,66,67,68,69,70,71,72,73,74,75,76,77,78,79,80],"extras":{"partID":"bridge"},"name":"bridge"},{"name":"millimetres","scale":[0.001,0.001,0.001],"children":[12,25,38,58,81]}],"materials":[{"doubleSided":true,"name":"Satin steel","pbrMetallicRoughness":{"baseColorTexture":{"index":0},"metallicFactor":1,"metallicRoughnessTexture":{"index":1},"baseColorFactor":[0.5699999928474426,0.6200000047683716,0.6899999976158142,1.0],"roughnessFactor":1}},{"doubleSided":true,"name":"input","pbrMetallicRoughness":{"baseColorTexture":{"index":0},"metallicFactor":1,"metallicRoughnessTexture":{"index":1},"baseColorFactor":[0.6104955673217773,0.3324515223503113,0.06480326503515244,1.0],"roughnessFactor":1}},{"doubleSided":true,"name":"idler","pbrMetallicRoughness":{"baseColorTexture":{"index":0},"metallicFactor":1,"metallicRoughnessTexture":{"index":1},"baseColorFactor":[0.14995978772640228,0.2961382567882538,0.4564110338687897,1.0],"roughnessFactor":1}},{"doubleSided":true,"name":"output","pbrMetallicRoughness":{"baseColorTexture":{"index":0},"metallicFactor":1,"metallicRoughnessTexture":{"index":1},"baseColorFactor":[0.6104955673217773,0.19120168685913086,0.09989872574806213,1.0],"roughnessFactor":1}},{"doubleSided":true,"name":"Pale aluminium","pbrMetallicRoughness":{"baseColorTexture":{"index":0},"metallicFactor":0.9302325720010802,"metallicRoughnessTexture":{"index":1},"baseColorFactor":[0.7699999809265137,0.7900000214576721,0.800000011920929,1.0],"roughnessFactor":1}},{"doubleSided":true,"name":"Bearing bronze","pbrMetallicRoughness":{"baseColorTexture":{"index":0},"metallicFactor":1,"metallicRoughnessTexture":{"index":1},"baseColorFactor":[0.3499999940395355,0.2199999988079071,0.10000000149011612,1.0],"roughnessFactor":1}}],"meshes":[{"name":"input-collar","primitives":[{"attributes":{"POSITION":0,"NORMAL":1,"TEXCOORD_0":2},"indices":3,"material":0}]},{"name":"input-hub","primitives":[{"attributes":{"POSITION":4,"NORMAL":5,"TEXCOORD_0":6},"indices":3,"material":1}]},{"name":"Cube.007","primitives":[{"attributes":{"POSITION":7,"NORMAL":8,"TEXCOORD_0":9},"indices":10,"material":0}]},{"name":"input-rim","primitives":[{"attributes":{"POSITION":11,"NORMAL":12,"TEXCOORD_0":13},"indices":14,"material":1}]},{"name":"input-shaft","primitives":[{"attributes":{"POSITION":15,"NORMAL":16,"TEXCOORD_0":17},"indices":3,"material":0}]},{"name":"input-shoulder","primitives":[{"attributes":{"POSITION":18,"NORMAL":19,"TEXCOORD_0":20},"indices":3,"material":0}]},{"name":"Cube.001","primitives":[{"attributes":{"POSITION":21,"NORMAL":22,"TEXCOORD_0":23},"indices":24,"material":1}]},{"name":"Cube.002","primitives":[{"attributes":{"POSITION":25,"NORMAL":26,"TEXCOORD_0":27},"indices":24,"material":1}]},{"name":"Cube.003","primitives":[{"attributes":{"POSITION":28,"NORMAL":29,"TEXCOORD_0":30},"indices":24,"material":1}]},{"name":"Cube.004","primitives":[{"attributes":{"POSITION":31,"NORMAL":32,"TEXCOORD_0":33},"indices":24,"material":1}]},{"name":"Cube.005","primitives":[{"attributes":{"POSITION":34,"NORMAL":35,"TEXCOORD_0":36},"indices":24,"material":1}]},{"name":"Cube.006","primitives":[{"attributes":{"POSITION":37,"NORMAL":38,"TEXCOORD_0":39},"indices":24,"material":1}]},{"name":"idler-collar","primitives":[{"attributes":{"POSITION":40,"NORMAL":41,"TEXCOORD_0":42},"indices":3,"material":0}]},{"name":"idler-hub","primitives":[{"attributes":{"POSITION":43,"NORMAL":44,"TEXCOORD_0":45},"indices":3,"material":2}]},{"name":"Cube.014","primitives":[{"attributes":{"POSITION":46,"NORMAL":47,"TEXCOORD_0":48},"indices":10,"material":0}]},{"name":"idler-rim","primitives":[{"attributes":{"POSITION":49,"NORMAL":50,"TEXCOORD_0":51},"indices":52,"material":2}]},{"name":"idler-shaft","primitives":[{"attributes":{"POSITION":53,"NORMAL":54,"TEXCOORD_0":55},"indices":3,"material":0}]},{"name":"idler-shoulder","primitives":[{"attributes":{"POSITION":56,"NORMAL":57,"TEXCOORD_0":58},"indices":3,"material":0}]},{"name":"Cube.008","primitives":[{"attributes":{"POSITION":59,"NORMAL":60,"TEXCOORD_0":61},"indices":62,"material":2}]},{"name":"Cube.009","primitives":[{"attributes":{"POSITION":63,"NORMAL":64,"TEXCOORD_0":65},"indices":62,"material":2}]},{"name":"Cube.010","primitives":[{"attributes":{"POSITION":66,"NORMAL":67,"TEXCOORD_0":68},"indices":62,"material":2}]},{"name":"Cube.011","primitives":[{"attributes":{"POSITION":69,"NORMAL":70,"TEXCOORD_0":71},"indices":62,"material":2}]},{"name":"Cube.012","primitives":[{"attributes":{"POSITION":72,"NORMAL":73,"TEXCOORD_0":74},"indices":62,"material":2}]},{"name":"Cube.013","primitives":[{"attributes":{"POSITION":75,"NORMAL":76,"TEXCOORD_0":77},"indices":62,"material":2}]},{"name":"output-collar","primitives":[{"attributes":{"POSITION":78,"NORMAL":79,"TEXCOORD_0":80},"indices":3,"material":0}]},{"name":"output-hub","primitives":[{"attributes":{"POSITION":81,"NORMAL":82,"TEXCOORD_0":83},"indices":3,"material":3}]},{"name":"Cube.021","primitives":[{"attributes":{"POSITION":84,"NORMAL":85,"TEXCOORD_0":86},"indices":10,"material":0}]},{"name":"output-rim","primitives":[{"attributes":{"POSITION":87,"NORMAL":88,"TEXCOORD_0":89},"indices":90,"material":3}]},{"name":"output-shaft","primitives":[{"attributes":{"POSITION":91,"NORMAL":92,"TEXCOORD_0":93},"indices":3,"material":0}]},{"name":"output-shoulder","primitives":[{"attributes":{"POSITION":94,"NORMAL":95,"TEXCOORD_0":96},"indices":3,"material":0}]},{"name":"Cube.015","primitives":[{"attributes":{"POSITION":97,"NORMAL":98,"TEXCOORD_0":99},"indices":100,"material":3}]},{"name":"Cube.016","primitives":[{"attributes":{"POSITION":101,"NORMAL":102,"TEXCOORD_0":103},"indices":100,"material":3}]},{"name":"Cube.017","primitives":[{"attributes":{"POSITION":104,"NORMAL":105,"TEXCOORD_0":106},"indices":100,"material":3}]},{"name":"Cube.018","primitives":[{"attributes":{"POSITION":107,"NORMAL":108,"TEXCOORD_0":109},"indices":100,"material":3}]},{"name":"Cube.019","primitives":[{"attributes":{"POSITION":110,"NORMAL":111,"TEXCOORD_0":112},"indices":100,"material":3}]},{"name":"Cube.020","primitives":[{"attributes":{"POSITION":113,"NORMAL":114,"TEXCOORD_0":115},"indices":100,"material":3}]},{"name":"Cube.022","primitives":[{"attributes":{"POSITION":116,"NORMAL":117,"TEXCOORD_0":118},"indices":119,"material":4}]},{"name":"Cube.023","primitives":[{"attributes":{"POSITION":120,"NORMAL":121,"TEXCOORD_0":122},"indices":119,"material":4}]},{"name":"bearing-75.0-12","primitives":[{"attributes":{"POSITION":123,"NORMAL":124,"TEXCOORD_0":125},"indices":3,"material":5}]},{"name":"Cube.026","primitives":[{"attributes":{"POSITION":126,"NORMAL":127,"TEXCOORD_0":128},"indices":129,"material":4}]},{"name":"Cube.027","primitives":[{"attributes":{"POSITION":130,"NORMAL":131,"TEXCOORD_0":132},"indices":129,"material":4}]},{"name":"Cube.030","primitives":[{"attributes":{"POSITION":133,"NORMAL":134,"TEXCOORD_0":135},"indices":129,"material":4}]},{"name":"Cube.031","primitives":[{"attributes":{"POSITION":136,"NORMAL":137,"TEXCOORD_0":138},"indices":129,"material":4}]},{"name":"Cube.034","primitives":[{"attributes":{"POSITION":139,"NORMAL":140,"TEXCOORD_0":141},"indices":129,"material":4}]},{"name":"Cube.035","primitives":[{"attributes":{"POSITION":142,"NORMAL":143,"TEXCOORD_0":144},"indices":129,"material":4}]},{"name":"bearing25.0-12","primitives":[{"attributes":{"POSITION":145,"NORMAL":146,"TEXCOORD_0":147},"indices":3,"material":5}]},{"name":"bearing89.0-12","primitives":[{"attributes":{"POSITION":148,"NORMAL":149,"TEXCOORD_0":150},"indices":3,"material":5}]},{"name":"chassis","primitives":[{"attributes":{"POSITION":151,"NORMAL":152,"TEXCOORD_0":153},"indices":154,"material":4}]},{"name":"housing-75.0-12","primitives":[{"attributes":{"POSITION":155,"NORMAL":156,"TEXCOORD_0":157},"indices":3,"material":0}]},{"name":"housing25.0-12","primitives":[{"attributes":{"POSITION":158,"NORMAL":159,"TEXCOORD_0":160},"indices":3,"material":0}]},{"name":"housing89.0-12","primitives":[{"attributes":{"POSITION":161,"NORMAL":162,"TEXCOORD_0":163},"indices":3,"material":0}]},{"name":"post","primitives":[{"attributes":{"POSITION":164,"NORMAL":165,"TEXCOORD_0":166},"indices":3,"material":0}]},{"name":"post.001","primitives":[{"attributes":{"POSITION":167,"NORMAL":168,"TEXCOORD_0":169},"indices":3,"material":0}]},{"name":"post.002","primitives":[{"attributes":{"POSITION":170,"NORMAL":171,"TEXCOORD_0":172},"indices":3,"material":0}]},{"name":"post.003","primitives":[{"attributes":{"POSITION":173,"NORMAL":174,"TEXCOORD_0":175},"indices":3,"material":0}]},{"name":"bearing-75.021","primitives":[{"attributes":{"POSITION":176,"NORMAL":177,"TEXCOORD_0":178},"indices":3,"material":5}]},{"name":"Cube.028","primitives":[{"attributes":{"POSITION":179,"NORMAL":180,"TEXCOORD_0":181},"indices":129,"material":4}]},{"name":"Cube.029","primitives":[{"attributes":{"POSITION":182,"NORMAL":183,"TEXCOORD_0":184},"indices":129,"material":4}]},{"name":"Cube.032","primitives":[{"attributes":{"POSITION":185,"NORMAL":186,"TEXCOORD_0":187},"indices":129,"material":4}]},{"name":"Cube.033","primitives":[{"attributes":{"POSITION":188,"NORMAL":189,"TEXCOORD_0":190},"indices":129,"material":4}]},{"name":"Cube.036","primitives":[{"attributes":{"POSITION":191,"NORMAL":192,"TEXCOORD_0":193},"indices":129,"material":4}]},{"name":"Cube.037","primitives":[{"attributes":{"POSITION":194,"NORMAL":195,"TEXCOORD_0":196},"indices":129,"material":4}]},{"name":"bearing25.021","primitives":[{"attributes":{"POSITION":197,"NORMAL":198,"TEXCOORD_0":199},"indices":3,"material":5}]},{"name":"bearing89.021","primitives":[{"attributes":{"POSITION":200,"NORMAL":201,"TEXCOORD_0":202},"indices":3,"material":5}]},{"name":"Cube.024","primitives":[{"attributes":{"POSITION":203,"NORMAL":204,"TEXCOORD_0":205},"indices":206,"material":4}]},{"name":"Cube.025","primitives":[{"attributes":{"POSITION":207,"NORMAL":208,"TEXCOORD_0":209},"indices":206,"material":4}]},{"name":"housing-75.021","primitives":[{"attributes":{"POSITION":210,"NORMAL":211,"TEXCOORD_0":212},"indices":3,"material":0}]},{"name":"housing25.021","primitives":[{"attributes":{"POSITION":213,"NORMAL":214,"TEXCOORD_0":215},"indices":3,"material":0}]},{"name":"housing89.021","primitives":[{"attributes":{"POSITION":216,"NORMAL":217,"TEXCOORD_0":218},"indices":3,"material":0}]},{"name":"screw","primitives":[{"attributes":{"POSITION":219,"NORMAL":220,"TEXCOORD_0":221},"indices":222,"material":0}]},{"name":"Cube.038","primitives":[{"attributes":{"POSITION":223,"NORMAL":224,"TEXCOORD_0":225},"indices":226,"material":5}]},{"name":"Cube.039","primitives":[{"attributes":{"POSITION":227,"NORMAL":228,"TEXCOORD_0":229},"indices":226,"material":5}]},{"name":"Cube.040","primitives":[{"attributes":{"POSITION":230,"NORMAL":231,"TEXCOORD_0":232},"indices":226,"material":5}]},{"name":"Cube.041","primitives":[{"attributes":{"POSITION":233,"NORMAL":234,"TEXCOORD_0":235},"indices":226,"material":5}]},{"name":"screw.001","primitives":[{"attributes":{"POSITION":236,"NORMAL":237,"TEXCOORD_0":238},"indices":222,"material":0}]},{"name":"screw.002","primitives":[{"attributes":{"POSITION":239,"NORMAL":240,"TEXCOORD_0":241},"indices":222,"material":0}]},{"name":"screw.003","primitives":[{"attributes":{"POSITION":242,"NORMAL":243,"TEXCOORD_0":244},"indices":222,"material":0}]}],"textures":[{"source":0},{"source":1}],"images":[{"uri":"machined.png"},{"uri":"roughness.png"}],"accessors":[{"bufferView":0,"componentType":5126,"count":3584,"max":[5,7,5],"min":[-5,5,-5],"type":"VEC3"},{"bufferView":1,"componentType":5126,"count":3584,"type":"VEC3"},{"bufferView":2,"componentType":5126,"count":3584,"type":"VEC2"},{"bufferView":3,"componentType":5123,"count":6144,"type":"SCALAR"},{"bufferView":4,"componentType":5126,"count":3584,"max":[10.800000190734863,5,10.800000190734863],"min":[-10.800000190734863,-4,-10.800000190734863],"type":"VEC3"},{"bufferView":5,"componentType":5126,"count":3584,"type":"VEC3"},{"bufferView":6,"componentType":5126,"count":3584,"type":"VEC2"},{"bufferView":7,"componentType":5126,"count":426,"max":[2,0.25,0.699999988079071],"min":[-2,-0.25,-0.699999988079071],"type":"VEC3"},{"bufferView":8,"componentType":5126,"count":426,"type":"VEC3"},{"bufferView":9,"componentType":5126,"count":426,"type":"VEC2"},{"bufferView":10,"componentType":5123,"count":900,"type":"SCALAR"},{"bufferView":11,"componentType":5126,"count":56160,"max":[62,3,62],"min":[-62,-3,-62],"type":"VEC3"},{"bufferView":12,"componentType":5126,"count":56160,"type":"VEC3"},{"bufferView":13,"componentType":5126,"count":56160,"type":"VEC2"},{"bufferView":14,"componentType":5123,"count":95040,"type":"SCALAR"},{"bufferView":15,"componentType":5126,"count":3584,"max":[3.200000047683716,26,3.200000047683716],"min":[-3.200000047683716,-12,-3.200000047683716],"type":"VEC3"},{"bufferView":16,"componentType":5126,"count":3584,"type":"VEC3"},{"bufferView":17,"componentType":5126,"count":3584,"type":"VEC2"},{"bufferView":18,"componentType":5126,"count":3584,"max":[5,-4,5],"min":[-5,-7,-5],"type":"VEC3"},{"bufferView":19,"componentType":5126,"count":3584,"type":"VEC3"},{"bufferView":20,"componentType":5126,"count":3584,"type":"VEC2"},{"bufferView":21,"componentType":5126,"count":386,"max":[18.200000762939453,2,1.5499999523162842],"min":[-18.200000762939453,-2,-1.5499999523162842],"type":"VEC3"},{"bufferView":22,"componentType":5126,"count":386,"type":"VEC3"},{"bufferView":23,"componentType":5126,"count":386,"type":"VEC2"},{"bufferView":24,"componentType":5123,"count":900,"type":"SCALAR"},{"bufferView":25,"componentType":5126,"count":386,"max":[18.200000762939453,2,1.5499999523162842],"min":[-18.200000762939453,-2,-1.5499999523162842],"type":"VEC3"},{"bufferView":26,"componentType":5126,"count":386,"type":"VEC3"},{"bufferView":27,"componentType":5126,"count":386,"type":"VEC2"},{"bufferView":28,"componentType":5126,"count":386,"max":[18.200000762939453,2,1.5499999523162842],"min":[-18.200000762939453,-2,-1.5499999523162842],"type":"VEC3"},{"bufferView":29,"componentType":5126,"count":386,"type":"VEC3"},{"bufferView":30,"componentType":5126,"count":386,"type":"VEC2"},{"bufferView":31,"componentType":5126,"count":386,"max":[18.200000762939453,2,1.5499999523162842],"min":[-18.200000762939453,-2,-1.5499999523162842],"type":"VEC3"},{"bufferView":32,"componentType":5126,"count":386,"type":"VEC3"},{"bufferView":33,"componentType":5126,"count":386,"type":"VEC2"},{"bufferView":34,"componentType":5126,"count":386,"max":[18.200000762939453,2,1.5499999523162842],"min":[-18.200000762939453,-2,-1.5499999523162842],"type":"VEC3"},{"bufferView":35,"componentType":5126,"count":386,"type":"VEC3"},{"bufferView":36,"componentType":5126,"count":386,"type":"VEC2"},{"bufferView":37,"componentType":5126,"count":386,"max":[18.200000762939453,2,1.5499999523162842],"min":[-18.200000762939453,-2,-1.5499999523162842],"type":"VEC3"},{"bufferView":38,"componentType":5126,"count":386,"type":"VEC3"},{"bufferView":39,"componentType":5126,"count":386,"type":"VEC2"},{"bufferView":40,"componentType":5126,"count":3584,"max":[5,7,5],"min":[-5,5,-5],"type":"VEC3"},{"bufferView":41,"componentType":5126,"count":3584,"type":"VEC3"},{"bufferView":42,"componentType":5126,"count":3584,"type":"VEC2"},{"bufferView":43,"componentType":5126,"count":3584,"max":[7.199999809265137,5,7.199999809265137],"min":[-7.199999809265137,-4,-7.199999809265137],"type":"VEC3"},{"bufferView":44,"componentType":5126,"count":3584,"type":"VEC3"},{"bufferView":45,"componentType":5126,"count":3584,"type":"VEC2"},{"bufferView":46,"componentType":5126,"count":426,"max":[2,0.25,0.699999988079071],"min":[-2,-0.25,-0.699999988079071],"type":"VEC3"},{"bufferView":47,"componentType":5126,"count":426,"type":"VEC3"},{"bufferView":48,"componentType":5126,"count":426,"type":"VEC2"},{"bufferView":49,"componentType":5126,"count":39480,"max":[42,3,42],"min":[-42,-3,-42],"type":"VEC3"},{"bufferView":50,"componentType":5126,"count":39480,"type":"VEC3"},{"bufferView":51,"componentType":5126,"count":39480,"type":"VEC2"},{"bufferView":52,"componentType":5123,"count":67584,"type":"SCALAR"},{"bufferView":53,"componentType":5126,"count":3584,"max":[3.200000047683716,26,3.200000047683716],"min":[-3.200000047683716,-12,-3.200000047683716],"type":"VEC3"},{"bufferView":54,"componentType":5126,"count":3584,"type":"VEC3"},{"bufferView":55,"componentType":5126,"count":3584,"type":"VEC2"},{"bufferView":56,"componentType":5126,"count":3584,"max":[5,-4,5],"min":[-5,-7,-5],"type":"VEC3"},{"bufferView":57,"componentType":5126,"count":3584,"type":"VEC3"},{"bufferView":58,"componentType":5126,"count":3584,"type":"VEC2"},{"bufferView":59,"componentType":5126,"count":445,"max":[11.300000190734863,2,1.5499999523162842],"min":[-11.300000190734863,-2,-1.5499999523162842],"type":"VEC3"},{"bufferView":60,"componentType":5126,"count":445,"type":"VEC3"},{"bufferView":61,"componentType":5126,"count":445,"type":"VEC2"},{"bufferView":62,"componentType":5123,"count":900,"type":"SCALAR"},{"bufferView":63,"componentType":5126,"count":445,"max":[11.300000190734863,2,1.5499999523162842],"min":[-11.300000190734863,-2,-1.5499999523162842],"type":"VEC3"},{"bufferView":64,"componentType":5126,"count":445,"type":"VEC3"},{"bufferView":65,"componentType":5126,"count":445,"type":"VEC2"},{"bufferView":66,"componentType":5126,"count":445,"max":[11.300000190734863,2,1.5499999523162842],"min":[-11.300000190734863,-2,-1.5499999523162842],"type":"VEC3"},{"bufferView":67,"componentType":5126,"count":445,"type":"VEC3"},{"bufferView":68,"componentType":5126,"count":445,"type":"VEC2"},{"bufferView":69,"componentType":5126,"count":445,"max":[11.300000190734863,2,1.5499999523162842],"min":[-11.300000190734863,-2,-1.5499999523162842],"type":"VEC3"},{"bufferView":70,"componentType":5126,"count":445,"type":"VEC3"},{"bufferView":71,"componentType":5126,"count":445,"type":"VEC2"},{"bufferView":72,"componentType":5126,"count":445,"max":[11.300000190734863,2,1.5499999523162842],"min":[-11.300000190734863,-2,-1.5499999523162842],"type":"VEC3"},{"bufferView":73,"componentType":5126,"count":445,"type":"VEC3"},{"bufferView":74,"componentType":5126,"count":445,"type":"VEC2"},{"bufferView":75,"componentType":5126,"count":445,"max":[11.300000190734863,2,1.5499999523162842],"min":[-11.300000190734863,-2,-1.5499999523162842],"type":"VEC3"},{"bufferView":76,"componentType":5126,"count":445,"type":"VEC3"},{"bufferView":77,"componentType":5126,"count":445,"type":"VEC2"},{"bufferView":78,"componentType":5126,"count":3584,"max":[5,7,5],"min":[-5,5,-5],"type":"VEC3"},{"bufferView":79,"componentType":5126,"count":3584,"type":"VEC3"},{"bufferView":80,"componentType":5126,"count":3584,"type":"VEC2"},{"bufferView":81,"componentType":5126,"count":3584,"max":[4.320000171661377,5,4.320000171661377],"min":[-4.320000171661377,-4,-4.320000171661377],"type":"VEC3"},{"bufferView":82,"componentType":5126,"count":3584,"type":"VEC3"},{"bufferView":83,"componentType":5126,"count":3584,"type":"VEC2"},{"bufferView":84,"componentType":5126,"count":426,"max":[2,0.25,0.699999988079071],"min":[-2,-0.25,-0.699999988079071],"type":"VEC3"},{"bufferView":85,"componentType":5126,"count":426,"type":"VEC3"},{"bufferView":86,"componentType":5126,"count":426,"type":"VEC2"},{"bufferView":87,"componentType":5126,"count":23138,"max":[26,3.000000476837158,26],"min":[-26,-3.000000476837158,-26],"type":"VEC3"},{"bufferView":88,"componentType":5126,"count":23138,"type":"VEC3"},{"bufferView":89,"componentType":5126,"count":23138,"type":"VEC2"},{"bufferView":90,"componentType":5123,"count":39936,"type":"SCALAR"},{"bufferView":91,"componentType":5126,"count":3584,"max":[3.200000047683716,26,3.200000047683716],"min":[-3.200000047683716,-12,-3.200000047683716],"type":"VEC3"},{"bufferView":92,"componentType":5126,"count":3584,"type":"VEC3"},{"bufferView":93,"componentType":5126,"count":3584,"type":"VEC2"},{"bufferView":94,"componentType":5126,"count":3584,"max":[5,-4,5],"min":[-5,-7,-5],"type":"VEC3"},{"bufferView":95,"componentType":5126,"count":3584,"type":"VEC3"},{"bufferView":96,"componentType":5126,"count":3584,"type":"VEC2"},{"bufferView":97,"componentType":5126,"count":400,"max":[5.78000020980835,2,1.5499999523162842],"min":[-5.78000020980835,-2,-1.5499999523162842],"type":"VEC3"},{"bufferView":98,"componentType":5126,"count":400,"type":"VEC3"},{"bufferView":99,"componentType":5126,"count":400,"type":"VEC2"},{"bufferView":100,"componentType":5123,"count":900,"type":"SCALAR"},{"bufferView":101,"componentType":5126,"count":400,"max":[5.78000020980835,2,1.5499999523162842],"min":[-5.78000020980835,-2,-1.5499999523162842],"type":"VEC3"},{"bufferView":102,"componentType":5126,"count":400,"type":"VEC3"},{"bufferView":103,"componentType":5126,"count":400,"type":"VEC2"},{"bufferView":104,"componentType":5126,"count":400,"max":[5.78000020980835,2,1.5499999523162842],"min":[-5.78000020980835,-2,-1.5499999523162842],"type":"VEC3"},{"bufferView":105,"componentType":5126,"count":400,"type":"VEC3"},{"bufferView":106,"componentType":5126,"count":400,"type":"VEC2"},{"bufferView":107,"componentType":5126,"count":400,"max":[5.78000020980835,2,1.5499999523162842],"min":[-5.78000020980835,-2,-1.5499999523162842],"type":"VEC3"},{"bufferView":108,"componentType":5126,"count":400,"type":"VEC3"},{"bufferView":109,"componentType":5126,"count":400,"type":"VEC2"},{"bufferView":110,"componentType":5126,"count":400,"max":[5.78000020980835,2,1.5499999523162842],"min":[-5.78000020980835,-2,-1.5499999523162842],"type":"VEC3"},{"bufferView":111,"componentType":5126,"count":400,"type":"VEC3"},{"bufferView":112,"componentType":5126,"count":400,"type":"VEC2"},{"bufferView":113,"componentType":5126,"count":400,"max":[5.78000020980835,2,1.5499999523162842],"min":[-5.78000020980835,-2,-1.5499999523162842],"type":"VEC3"},{"bufferView":114,"componentType":5126,"count":400,"type":"VEC3"},{"bufferView":115,"componentType":5126,"count":400,"type":"VEC2"},{"bufferView":116,"componentType":5126,"count":385,"max":[138.5,3,3.5],"min":[-138.5,-3,-3.5],"type":"VEC3"},{"bufferView":117,"componentType":5126,"count":385,"type":"VEC3"},{"bufferView":118,"componentType":5126,"count":385,"type":"VEC2"},{"bufferView":119,"componentType":5123,"count":900,"type":"SCALAR"},{"bufferView":120,"componentType":5126,"count":385,"max":[138.5,3,3.5],"min":[-138.5,-3,-3.5],"type":"VEC3"},{"bufferView":121,"componentType":5126,"count":385,"type":"VEC3"},{"bufferView":122,"componentType":5126,"count":385,"type":"VEC2"},{"bufferView":123,"componentType":5126,"count":3584,"max":[5,-7,5],"min":[-5,-12,-5],"type":"VEC3"},{"bufferView":124,"componentType":5126,"count":3584,"type":"VEC3"},{"bufferView":125,"componentType":5126,"count":3584,"type":"VEC2"},{"bufferView":126,"componentType":5126,"count":433,"max":[8,2.5,3],"min":[-8,-2.5,-3],"type":"VEC3"},{"bufferView":127,"componentType":5126,"count":433,"type":"VEC3"},{"bufferView":128,"componentType":5126,"count":433,"type":"VEC2"},{"bufferView":129,"componentType":5123,"count":900,"type":"SCALAR"},{"bufferView":130,"componentType":5126,"count":433,"max":[8,2.5,3],"min":[-8,-2.5,-3],"type":"VEC3"},{"bufferView":131,"componentType":5126,"count":433,"type":"VEC3"},{"bufferView":132,"componentType":5126,"count":433,"type":"VEC2"},{"bufferView":133,"componentType":5126,"count":433,"max":[8,2.5,3],"min":[-8,-2.5,-3],"type":"VEC3"},{"bufferView":134,"componentType":5126,"count":433,"type":"VEC3"},{"bufferView":135,"componentType":5126,"count":433,"type":"VEC2"},{"bufferView":136,"componentType":5126,"count":433,"max":[8,2.5,3],"min":[-8,-2.5,-3],"type":"VEC3"},{"bufferView":137,"componentType":5126,"count":433,"type":"VEC3"},{"bufferView":138,"componentType":5126,"count":433,"type":"VEC2"},{"bufferView":139,"componentType":5126,"count":433,"max":[8,2.5,3],"min":[-8,-2.5,-3],"type":"VEC3"},{"bufferView":140,"componentType":5126,"count":433,"type":"VEC3"},{"bufferView":141,"componentType":5126,"count":433,"type":"VEC2"},{"bufferView":142,"componentType":5126,"count":433,"max":[8,2.5,3],"min":[-8,-2.5,-3],"type":"VEC3"},{"bufferView":143,"componentType":5126,"count":433,"type":"VEC3"},{"bufferView":144,"componentType":5126,"count":433,"type":"VEC2"},{"bufferView":145,"componentType":5126,"count":3584,"max":[5,-7,5],"min":[-5,-12,-5],"type":"VEC3"},{"bufferView":146,"componentType":5126,"count":3584,"type":"VEC3"},{"bufferView":147,"componentType":5126,"count":3584,"type":"VEC2"},{"bufferView":148,"componentType":5126,"count":3584,"max":[5,-7,5],"min":[-5,-12,-5],"type":"VEC3"},{"bufferView":149,"componentType":5126,"count":3584,"type":"VEC3"},{"bufferView":150,"componentType":5126,"count":3584,"type":"VEC2"},{"bufferView":151,"componentType":5126,"count":5376,"max":[146,-10,78],"min":[-146,-16,-78],"type":"VEC3"},{"bufferView":152,"componentType":5126,"count":5376,"type":"VEC3"},{"bufferView":153,"componentType":5126,"count":5376,"type":"VEC2"},{"bufferView":154,"componentType":5123,"count":9216,"type":"SCALAR"},{"bufferView":155,"componentType":5126,"count":3584,"max":[9,-7,9],"min":[-9,-12,-9],"type":"VEC3"},{"bufferView":156,"componentType":5126,"count":3584,"type":"VEC3"},{"bufferView":157,"componentType":5126,"count":3584,"type":"VEC2"},{"bufferView":158,"componentType":5126,"count":3584,"max":[9,-7,9],"min":[-9,-12,-9],"type":"VEC3"},{"bufferView":159,"componentType":5126,"count":3584,"type":"VEC3"},{"bufferView":160,"componentType":5126,"count":3584,"type":"VEC2"},{"bufferView":161,"componentType":5126,"count":3584,"max":[9,-7,9],"min":[-9,-12,-9],"type":"VEC3"},{"bufferView":162,"componentType":5126,"count":3584,"type":"VEC3"},{"bufferView":163,"componentType":5126,"count":3584,"type":"VEC2"},{"bufferView":164,"componentType":5126,"count":3584,"max":[3.4000000953674316,21,3.4000000953674316],"min":[-3.4000000953674316,-10,-3.4000000953674316],"type":"VEC3"},{"bufferView":165,"componentType":5126,"count":3584,"type":"VEC3"},{"bufferView":166,"componentType":5126,"count":3584,"type":"VEC2"},{"bufferView":167,"componentType":5126,"count":3584,"max":[3.4000000953674316,21,3.4000000953674316],"min":[-3.4000000953674316,-10,-3.4000000953674316],"type":"VEC3"},{"bufferView":168,"componentType":5126,"count":3584,"type":"VEC3"},{"bufferView":169,"componentType":5126,"count":3584,"type":"VEC2"},{"bufferView":170,"componentType":5126,"count":3584,"max":[3.4000000953674316,21,3.4000000953674316],"min":[-3.4000000953674316,-10,-3.4000000953674316],"type":"VEC3"},{"bufferView":171,"componentType":5126,"count":3584,"type":"VEC3"},{"bufferView":172,"componentType":5126,"count":3584,"type":"VEC2"},{"bufferView":173,"componentType":5126,"count":3584,"max":[3.4000000953674316,21,3.4000000953674316],"min":[-3.4000000953674316,-10,-3.4000000953674316],"type":"VEC3"},{"bufferView":174,"componentType":5126,"count":3584,"type":"VEC3"},{"bufferView":175,"componentType":5126,"count":3584,"type":"VEC2"},{"bufferView":176,"componentType":5126,"count":3584,"max":[5,26,5],"min":[-5,21,-5],"type":"VEC3"},{"bufferView":177,"componentType":5126,"count":3584,"type":"VEC3"},{"bufferView":178,"componentType":5126,"count":3584,"type":"VEC2"},{"bufferView":179,"componentType":5126,"count":433,"max":[8,2.5,3],"min":[-8,-2.5,-3],"type":"VEC3"},{"bufferView":180,"componentType":5126,"count":433,"type":"VEC3"},{"bufferView":181,"componentType":5126,"count":433,"type":"VEC2"},{"bufferView":182,"componentType":5126,"count":433,"max":[8,2.5,3],"min":[-8,-2.5,-3],"type":"VEC3"},{"bufferView":183,"componentType":5126,"count":433,"type":"VEC3"},{"bufferView":184,"componentType":5126,"count":433,"type":"VEC2"},{"bufferView":185,"componentType":5126,"count":433,"max":[8,2.5,3],"min":[-8,-2.5,-3],"type":"VEC3"},{"bufferView":186,"componentType":5126,"count":433,"type":"VEC3"},{"bufferView":187,"componentType":5126,"count":433,"type":"VEC2"},{"bufferView":188,"componentType":5126,"count":433,"max":[8,2.5,3],"min":[-8,-2.5,-3],"type":"VEC3"},{"bufferView":189,"componentType":5126,"count":433,"type":"VEC3"},{"bufferView":190,"componentType":5126,"count":433,"type":"VEC2"},{"bufferView":191,"componentType":5126,"count":433,"max":[8,2.5,3],"min":[-8,-2.5,-3],"type":"VEC3"},{"bufferView":192,"componentType":5126,"count":433,"type":"VEC3"},{"bufferView":193,"componentType":5126,"count":433,"type":"VEC2"},{"bufferView":194,"componentType":5126,"count":433,"max":[8,2.5,3],"min":[-8,-2.5,-3],"type":"VEC3"},{"bufferView":195,"componentType":5126,"count":433,"type":"VEC3"},{"bufferView":196,"componentType":5126,"count":433,"type":"VEC2"},{"bufferView":197,"componentType":5126,"count":3584,"max":[5,26,5],"min":[-5,21,-5],"type":"VEC3"},{"bufferView":198,"componentType":5126,"count":3584,"type":"VEC3"},{"bufferView":199,"componentType":5126,"count":3584,"type":"VEC2"},{"bufferView":200,"componentType":5126,"count":3584,"max":[5,26,5],"min":[-5,21,-5],"type":"VEC3"},{"bufferView":201,"componentType":5126,"count":3584,"type":"VEC3"},{"bufferView":202,"componentType":5126,"count":3584,"type":"VEC2"},{"bufferView":203,"componentType":5126,"count":415,"max":[138,2.5,3],"min":[-138,-2.5,-3],"type":"VEC3"},{"bufferView":204,"componentType":5126,"count":415,"type":"VEC3"},{"bufferView":205,"componentType":5126,"count":415,"type":"VEC2"},{"bufferView":206,"componentType":5123,"count":900,"type":"SCALAR"},{"bufferView":207,"componentType":5126,"count":415,"max":[138,2.5,3],"min":[-138,-2.5,-3],"type":"VEC3"},{"bufferView":208,"componentType":5126,"count":415,"type":"VEC3"},{"bufferView":209,"componentType":5126,"count":415,"type":"VEC2"},{"bufferView":210,"componentType":5126,"count":3584,"max":[9,26,9],"min":[-9,21,-9],"type":"VEC3"},{"bufferView":211,"componentType":5126,"count":3584,"type":"VEC3"},{"bufferView":212,"componentType":5126,"count":3584,"type":"VEC2"},{"bufferView":213,"componentType":5126,"count":3584,"max":[9,26,9],"min":[-9,21,-9],"type":"VEC3"},{"bufferView":214,"componentType":5126,"count":3584,"type":"VEC3"},{"bufferView":215,"componentType":5126,"count":3584,"type":"VEC2"},{"bufferView":216,"componentType":5126,"count":3584,"max":[9,26,9],"min":[-9,21,-9],"type":"VEC3"},{"bufferView":217,"componentType":5126,"count":3584,"type":"VEC3"},{"bufferView":218,"componentType":5126,"count":3584,"type":"VEC2"},{"bufferView":219,"componentType":5126,"count":1792,"max":[4.400000095367432,29,4.400000095367432],"min":[-4.400000095367432,26,-4.400000095367432],"type":"VEC3"},{"bufferView":220,"componentType":5126,"count":1792,"type":"VEC3"},{"bufferView":221,"componentType":5126,"count":1792,"type":"VEC2"},{"bufferView":222,"componentType":5123,"count":3072,"type":"SCALAR"},{"bufferView":223,"componentType":5126,"count":396,"max":[2.5,0.15000000596046448,0.4000000059604645],"min":[-2.5,-0.15000000596046448,-0.4000000059604645],"type":"VEC3"},{"bufferView":224,"componentType":5126,"count":396,"type":"VEC3"},{"bufferView":225,"componentType":5126,"count":396,"type":"VEC2"},{"bufferView":226,"componentType":5123,"count":900,"type":"SCALAR"},{"bufferView":227,"componentType":5126,"count":396,"max":[2.5,0.15000000596046448,0.4000000059604645],"min":[-2.5,-0.15000000596046448,-0.4000000059604645],"type":"VEC3"},{"bufferView":228,"componentType":5126,"count":396,"type":"VEC3"},{"bufferView":229,"componentType":5126,"count":396,"type":"VEC2"},{"bufferView":230,"componentType":5126,"count":396,"max":[2.5,0.15000000596046448,0.4000000059604645],"min":[-2.5,-0.15000000596046448,-0.4000000059604645],"type":"VEC3"},{"bufferView":231,"componentType":5126,"count":396,"type":"VEC3"},{"bufferView":232,"componentType":5126,"count":396,"type":"VEC2"},{"bufferView":233,"componentType":5126,"count":396,"max":[2.5,0.15000000596046448,0.4000000059604645],"min":[-2.5,-0.15000000596046448,-0.4000000059604645],"type":"VEC3"},{"bufferView":234,"componentType":5126,"count":396,"type":"VEC3"},{"bufferView":235,"componentType":5126,"count":396,"type":"VEC2"},{"bufferView":236,"componentType":5126,"count":1792,"max":[4.400000095367432,29,4.400000095367432],"min":[-4.400000095367432,26,-4.400000095367432],"type":"VEC3"},{"bufferView":237,"componentType":5126,"count":1792,"type":"VEC3"},{"bufferView":238,"componentType":5126,"count":1792,"type":"VEC2"},{"bufferView":239,"componentType":5126,"count":1792,"max":[4.400000095367432,29,4.400000095367432],"min":[-4.400000095367432,26,-4.400000095367432],"type":"VEC3"},{"bufferView":240,"componentType":5126,"count":1792,"type":"VEC3"},{"bufferView":241,"componentType":5126,"count":1792,"type":"VEC2"},{"bufferView":242,"componentType":5126,"count":1792,"max":[4.400000095367432,29,4.400000095367432],"min":[-4.400000095367432,26,-4.400000095367432],"type":"VEC3"},{"bufferView":243,"componentType":5126,"count":1792,"type":"VEC3"},{"bufferView":244,"componentType":5126,"count":1792,"type":"VEC2"}],"bufferViews":[{"buffer":0,"byteLength":43008,"byteOffset":0,"target":34962},{"buffer":0,"byteLength":43008,"byteOffset":43008,"target":34962},{"buffer":0,"byteLength":28672,"byteOffset":86016,"target":34962},{"buffer":0,"byteLength":12288,"byteOffset":114688,"target":34963},{"buffer":0,"byteLength":43008,"byteOffset":126976,"target":34962},{"buffer":0,"byteLength":43008,"byteOffset":169984,"target":34962},{"buffer":0,"byteLength":28672,"byteOffset":212992,"target":34962},{"buffer":0,"byteLength":5112,"byteOffset":241664,"target":34962},{"buffer":0,"byteLength":5112,"byteOffset":246776,"target":34962},{"buffer":0,"byteLength":3408,"byteOffset":251888,"target":34962},{"buffer":0,"byteLength":1800,"byteOffset":255296,"target":34963},{"buffer":0,"byteLength":673920,"byteOffset":257096,"target":34962},{"buffer":0,"byteLength":673920,"byteOffset":931016,"target":34962},{"buffer":0,"byteLength":449280,"byteOffset":1604936,"target":34962},{"buffer":0,"byteLength":190080,"byteOffset":2054216,"target":34963},{"buffer":0,"byteLength":43008,"byteOffset":2244296,"target":34962},{"buffer":0,"byteLength":43008,"byteOffset":2287304,"target":34962},{"buffer":0,"byteLength":28672,"byteOffset":2330312,"target":34962},{"buffer":0,"byteLength":43008,"byteOffset":2358984,"target":34962},{"buffer":0,"byteLength":43008,"byteOffset":2401992,"target":34962},{"buffer":0,"byteLength":28672,"byteOffset":2445000,"target":34962},{"buffer":0,"byteLength":4632,"byteOffset":2473672,"target":34962},{"buffer":0,"byteLength":4632,"byteOffset":2478304,"target":34962},{"buffer":0,"byteLength":3088,"byteOffset":2482936,"target":34962},{"buffer":0,"byteLength":1800,"byteOffset":2486024,"target":34963},{"buffer":0,"byteLength":4632,"byteOffset":2487824,"target":34962},{"buffer":0,"byteLength":4632,"byteOffset":2492456,"target":34962},{"buffer":0,"byteLength":3088,"byteOffset":2497088,"target":34962},{"buffer":0,"byteLength":4632,"byteOffset":2500176,"target":34962},{"buffer":0,"byteLength":4632,"byteOffset":2504808,"target":34962},{"buffer":0,"byteLength":3088,"byteOffset":2509440,"target":34962},{"buffer":0,"byteLength":4632,"byteOffset":2512528,"target":34962},{"buffer":0,"byteLength":4632,"byteOffset":2517160,"target":34962},{"buffer":0,"byteLength":3088,"byteOffset":2521792,"target":34962},{"buffer":0,"byteLength":4632,"byteOffset":2524880,"target":34962},{"buffer":0,"byteLength":4632,"byteOffset":2529512,"target":34962},{"buffer":0,"byteLength":3088,"byteOffset":2534144,"target":34962},{"buffer":0,"byteLength":4632,"byteOffset":2537232,"target":34962},{"buffer":0,"byteLength":4632,"byteOffset":2541864,"target":34962},{"buffer":0,"byteLength":3088,"byteOffset":2546496,"target":34962},{"buffer":0,"byteLength":43008,"byteOffset":2549584,"target":34962},{"buffer":0,"byteLength":43008,"byteOffset":2592592,"target":34962},{"buffer":0,"byteLength":28672,"byteOffset":2635600,"target":34962},{"buffer":0,"byteLength":43008,"byteOffset":2664272,"target":34962},{"buffer":0,"byteLength":43008,"byteOffset":2707280,"target":34962},{"buffer":0,"byteLength":28672,"byteOffset":2750288,"target":34962},{"buffer":0,"byteLength":5112,"byteOffset":2778960,"target":34962},{"buffer":0,"byteLength":5112,"byteOffset":2784072,"target":34962},{"buffer":0,"byteLength":3408,"byteOffset":2789184,"target":34962},{"buffer":0,"byteLength":473760,"byteOffset":2792592,"target":34962},{"buffer":0,"byteLength":473760,"byteOffset":3266352,"target":34962},{"buffer":0,"byteLength":315840,"byteOffset":3740112,"target":34962},{"buffer":0,"byteLength":135168,"byteOffset":4055952,"target":34963},{"buffer":0,"byteLength":43008,"byteOffset":4191120,"target":34962},{"buffer":0,"byteLength":43008,"byteOffset":4234128,"target":34962},{"buffer":0,"byteLength":28672,"byteOffset":4277136,"target":34962},{"buffer":0,"byteLength":43008,"byteOffset":4305808,"target":34962},{"buffer":0,"byteLength":43008,"byteOffset":4348816,"target":34962},{"buffer":0,"byteLength":28672,"byteOffset":4391824,"target":34962},{"buffer":0,"byteLength":5340,"byteOffset":4420496,"target":34962},{"buffer":0,"byteLength":5340,"byteOffset":4425836,"target":34962},{"buffer":0,"byteLength":3560,"byteOffset":4431176,"target":34962},{"buffer":0,"byteLength":1800,"byteOffset":4434736,"target":34963},{"buffer":0,"byteLength":5340,"byteOffset":4436536,"target":34962},{"buffer":0,"byteLength":5340,"byteOffset":4441876,"target":34962},{"buffer":0,"byteLength":3560,"byteOffset":4447216,"target":34962},{"buffer":0,"byteLength":5340,"byteOffset":4450776,"target":34962},{"buffer":0,"byteLength":5340,"byteOffset":4456116,"target":34962},{"buffer":0,"byteLength":3560,"byteOffset":4461456,"target":34962},{"buffer":0,"byteLength":5340,"byteOffset":4465016,"target":34962},{"buffer":0,"byteLength":5340,"byteOffset":4470356,"target":34962},{"buffer":0,"byteLength":3560,"byteOffset":4475696,"target":34962},{"buffer":0,"byteLength":5340,"byteOffset":4479256,"target":34962},{"buffer":0,"byteLength":5340,"byteOffset":4484596,"target":34962},{"buffer":0,"byteLength":3560,"byteOffset":4489936,"target":34962},{"buffer":0,"byteLength":5340,"byteOffset":4493496,"target":34962},{"buffer":0,"byteLength":5340,"byteOffset":4498836,"target":34962},{"buffer":0,"byteLength":3560,"byteOffset":4504176,"target":34962},{"buffer":0,"byteLength":43008,"byteOffset":4507736,"target":34962},{"buffer":0,"byteLength":43008,"byteOffset":4550744,"target":34962},{"buffer":0,"byteLength":28672,"byteOffset":4593752,"target":34962},{"buffer":0,"byteLength":43008,"byteOffset":4622424,"target":34962},{"buffer":0,"byteLength":43008,"byteOffset":4665432,"target":34962},{"buffer":0,"byteLength":28672,"byteOffset":4708440,"target":34962},{"buffer":0,"byteLength":5112,"byteOffset":4737112,"target":34962},{"buffer":0,"byteLength":5112,"byteOffset":4742224,"target":34962},{"buffer":0,"byteLength":3408,"byteOffset":4747336,"target":34962},{"buffer":0,"byteLength":277656,"byteOffset":4750744,"target":34962},{"buffer":0,"byteLength":277656,"byteOffset":5028400,"target":34962},{"buffer":0,"byteLength":185104,"byteOffset":5306056,"target":34962},{"buffer":0,"byteLength":79872,"byteOffset":5491160,"target":34963},{"buffer":0,"byteLength":43008,"byteOffset":5571032,"target":34962},{"buffer":0,"byteLength":43008,"byteOffset":5614040,"target":34962},{"buffer":0,"byteLength":28672,"byteOffset":5657048,"target":34962},{"buffer":0,"byteLength":43008,"byteOffset":5685720,"target":34962},{"buffer":0,"byteLength":43008,"byteOffset":5728728,"target":34962},{"buffer":0,"byteLength":28672,"byteOffset":5771736,"target":34962},{"buffer":0,"byteLength":4800,"byteOffset":5800408,"target":34962},{"buffer":0,"byteLength":4800,"byteOffset":5805208,"target":34962},{"buffer":0,"byteLength":3200,"byteOffset":5810008,"target":34962},{"buffer":0,"byteLength":1800,"byteOffset":5813208,"target":34963},{"buffer":0,"byteLength":4800,"byteOffset":5815008,"target":34962},{"buffer":0,"byteLength":4800,"byteOffset":5819808,"target":34962},{"buffer":0,"byteLength":3200,"byteOffset":5824608,"target":34962},{"buffer":0,"byteLength":4800,"byteOffset":5827808,"target":34962},{"buffer":0,"byteLength":4800,"byteOffset":5832608,"target":34962},{"buffer":0,"byteLength":3200,"byteOffset":5837408,"target":34962},{"buffer":0,"byteLength":4800,"byteOffset":5840608,"target":34962},{"buffer":0,"byteLength":4800,"byteOffset":5845408,"target":34962},{"buffer":0,"byteLength":3200,"byteOffset":5850208,"target":34962},{"buffer":0,"byteLength":4800,"byteOffset":5853408,"target":34962},{"buffer":0,"byteLength":4800,"byteOffset":5858208,"target":34962},{"buffer":0,"byteLength":3200,"byteOffset":5863008,"target":34962},{"buffer":0,"byteLength":4800,"byteOffset":5866208,"target":34962},{"buffer":0,"byteLength":4800,"byteOffset":5871008,"target":34962},{"buffer":0,"byteLength":3200,"byteOffset":5875808,"target":34962},{"buffer":0,"byteLength":4620,"byteOffset":5879008,"target":34962},{"buffer":0,"byteLength":4620,"byteOffset":5883628,"target":34962},{"buffer":0,"byteLength":3080,"byteOffset":5888248,"target":34962},{"buffer":0,"byteLength":1800,"byteOffset":5891328,"target":34963},{"buffer":0,"byteLength":4620,"byteOffset":5893128,"target":34962},{"buffer":0,"byteLength":4620,"byteOffset":5897748,"target":34962},{"buffer":0,"byteLength":3080,"byteOffset":5902368,"target":34962},{"buffer":0,"byteLength":43008,"byteOffset":5905448,"target":34962},{"buffer":0,"byteLength":43008,"byteOffset":5948456,"target":34962},{"buffer":0,"byteLength":28672,"byteOffset":5991464,"target":34962},{"buffer":0,"byteLength":5196,"byteOffset":6020136,"target":34962},{"buffer":0,"byteLength":5196,"byteOffset":6025332,"target":34962},{"buffer":0,"byteLength":3464,"byteOffset":6030528,"target":34962},{"buffer":0,"byteLength":1800,"byteOffset":6033992,"target":34963},{"buffer":0,"byteLength":5196,"byteOffset":6035792,"target":34962},{"buffer":0,"byteLength":5196,"byteOffset":6040988,"target":34962},{"buffer":0,"byteLength":3464,"byteOffset":6046184,"target":34962},{"buffer":0,"byteLength":5196,"byteOffset":6049648,"target":34962},{"buffer":0,"byteLength":5196,"byteOffset":6054844,"target":34962},{"buffer":0,"byteLength":3464,"byteOffset":6060040,"target":34962},{"buffer":0,"byteLength":5196,"byteOffset":6063504,"target":34962},{"buffer":0,"byteLength":5196,"byteOffset":6068700,"target":34962},{"buffer":0,"byteLength":3464,"byteOffset":6073896,"target":34962},{"buffer":0,"byteLength":5196,"byteOffset":6077360,"target":34962},{"buffer":0,"byteLength":5196,"byteOffset":6082556,"target":34962},{"buffer":0,"byteLength":3464,"byteOffset":6087752,"target":34962},{"buffer":0,"byteLength":5196,"byteOffset":6091216,"target":34962},{"buffer":0,"byteLength":5196,"byteOffset":6096412,"target":34962},{"buffer":0,"byteLength":3464,"byteOffset":6101608,"target":34962},{"buffer":0,"byteLength":43008,"byteOffset":6105072,"target":34962},{"buffer":0,"byteLength":43008,"byteOffset":6148080,"target":34962},{"buffer":0,"byteLength":28672,"byteOffset":6191088,"target":34962},{"buffer":0,"byteLength":43008,"byteOffset":6219760,"target":34962},{"buffer":0,"byteLength":43008,"byteOffset":6262768,"target":34962},{"buffer":0,"byteLength":28672,"byteOffset":6305776,"target":34962},{"buffer":0,"byteLength":64512,"byteOffset":6334448,"target":34962},{"buffer":0,"byteLength":64512,"byteOffset":6398960,"target":34962},{"buffer":0,"byteLength":43008,"byteOffset":6463472,"target":34962},{"buffer":0,"byteLength":18432,"byteOffset":6506480,"target":34963},{"buffer":0,"byteLength":43008,"byteOffset":6524912,"target":34962},{"buffer":0,"byteLength":43008,"byteOffset":6567920,"target":34962},{"buffer":0,"byteLength":28672,"byteOffset":6610928,"target":34962},{"buffer":0,"byteLength":43008,"byteOffset":6639600,"target":34962},{"buffer":0,"byteLength":43008,"byteOffset":6682608,"target":34962},{"buffer":0,"byteLength":28672,"byteOffset":6725616,"target":34962},{"buffer":0,"byteLength":43008,"byteOffset":6754288,"target":34962},{"buffer":0,"byteLength":43008,"byteOffset":6797296,"target":34962},{"buffer":0,"byteLength":28672,"byteOffset":6840304,"target":34962},{"buffer":0,"byteLength":43008,"byteOffset":6868976,"target":34962},{"buffer":0,"byteLength":43008,"byteOffset":6911984,"target":34962},{"buffer":0,"byteLength":28672,"byteOffset":6954992,"target":34962},{"buffer":0,"byteLength":43008,"byteOffset":6983664,"target":34962},{"buffer":0,"byteLength":43008,"byteOffset":7026672,"target":34962},{"buffer":0,"byteLength":28672,"byteOffset":7069680,"target":34962},{"buffer":0,"byteLength":43008,"byteOffset":7098352,"target":34962},{"buffer":0,"byteLength":43008,"byteOffset":7141360,"target":34962},{"buffer":0,"byteLength":28672,"byteOffset":7184368,"target":34962},{"buffer":0,"byteLength":43008,"byteOffset":7213040,"target":34962},{"buffer":0,"byteLength":43008,"byteOffset":7256048,"target":34962},{"buffer":0,"byteLength":28672,"byteOffset":7299056,"target":34962},{"buffer":0,"byteLength":43008,"byteOffset":7327728,"target":34962},{"buffer":0,"byteLength":43008,"byteOffset":7370736,"target":34962},{"buffer":0,"byteLength":28672,"byteOffset":7413744,"target":34962},{"buffer":0,"byteLength":5196,"byteOffset":7442416,"target":34962},{"buffer":0,"byteLength":5196,"byteOffset":7447612,"target":34962},{"buffer":0,"byteLength":3464,"byteOffset":7452808,"target":34962},{"buffer":0,"byteLength":5196,"byteOffset":7456272,"target":34962},{"buffer":0,"byteLength":5196,"byteOffset":7461468,"target":34962},{"buffer":0,"byteLength":3464,"byteOffset":7466664,"target":34962},{"buffer":0,"byteLength":5196,"byteOffset":7470128,"target":34962},{"buffer":0,"byteLength":5196,"byteOffset":7475324,"target":34962},{"buffer":0,"byteLength":3464,"byteOffset":7480520,"target":34962},{"buffer":0,"byteLength":5196,"byteOffset":7483984,"target":34962},{"buffer":0,"byteLength":5196,"byteOffset":7489180,"target":34962},{"buffer":0,"byteLength":3464,"byteOffset":7494376,"target":34962},{"buffer":0,"byteLength":5196,"byteOffset":7497840,"target":34962},{"buffer":0,"byteLength":5196,"byteOffset":7503036,"target":34962},{"buffer":0,"byteLength":3464,"byteOffset":7508232,"target":34962},{"buffer":0,"byteLength":5196,"byteOffset":7511696,"target":34962},{"buffer":0,"byteLength":5196,"byteOffset":7516892,"target":34962},{"buffer":0,"byteLength":3464,"byteOffset":7522088,"target":34962},{"buffer":0,"byteLength":43008,"byteOffset":7525552,"target":34962},{"buffer":0,"byteLength":43008,"byteOffset":7568560,"target":34962},{"buffer":0,"byteLength":28672,"byteOffset":7611568,"target":34962},{"buffer":0,"byteLength":43008,"byteOffset":7640240,"target":34962},{"buffer":0,"byteLength":43008,"byteOffset":7683248,"target":34962},{"buffer":0,"byteLength":28672,"byteOffset":7726256,"target":34962},{"buffer":0,"byteLength":4980,"byteOffset":7754928,"target":34962},{"buffer":0,"byteLength":4980,"byteOffset":7759908,"target":34962},{"buffer":0,"byteLength":3320,"byteOffset":7764888,"target":34962},{"buffer":0,"byteLength":1800,"byteOffset":7768208,"target":34963},{"buffer":0,"byteLength":4980,"byteOffset":7770008,"target":34962},{"buffer":0,"byteLength":4980,"byteOffset":7774988,"target":34962},{"buffer":0,"byteLength":3320,"byteOffset":7779968,"target":34962},{"buffer":0,"byteLength":43008,"byteOffset":7783288,"target":34962},{"buffer":0,"byteLength":43008,"byteOffset":7826296,"target":34962},{"buffer":0,"byteLength":28672,"byteOffset":7869304,"target":34962},{"buffer":0,"byteLength":43008,"byteOffset":7897976,"target":34962},{"buffer":0,"byteLength":43008,"byteOffset":7940984,"target":34962},{"buffer":0,"byteLength":28672,"byteOffset":7983992,"target":34962},{"buffer":0,"byteLength":43008,"byteOffset":8012664,"target":34962},{"buffer":0,"byteLength":43008,"byteOffset":8055672,"target":34962},{"buffer":0,"byteLength":28672,"byteOffset":8098680,"target":34962},{"buffer":0,"byteLength":21504,"byteOffset":8127352,"target":34962},{"buffer":0,"byteLength":21504,"byteOffset":8148856,"target":34962},{"buffer":0,"byteLength":14336,"byteOffset":8170360,"target":34962},{"buffer":0,"byteLength":6144,"byteOffset":8184696,"target":34963},{"buffer":0,"byteLength":4752,"byteOffset":8190840,"target":34962},{"buffer":0,"byteLength":4752,"byteOffset":8195592,"target":34962},{"buffer":0,"byteLength":3168,"byteOffset":8200344,"target":34962},{"buffer":0,"byteLength":1800,"byteOffset":8203512,"target":34963},{"buffer":0,"byteLength":4752,"byteOffset":8205312,"target":34962},{"buffer":0,"byteLength":4752,"byteOffset":8210064,"target":34962},{"buffer":0,"byteLength":3168,"byteOffset":8214816,"target":34962},{"buffer":0,"byteLength":4752,"byteOffset":8217984,"target":34962},{"buffer":0,"byteLength":4752,"byteOffset":8222736,"target":34962},{"buffer":0,"byteLength":3168,"byteOffset":8227488,"target":34962},{"buffer":0,"byteLength":4752,"byteOffset":8230656,"target":34962},{"buffer":0,"byteLength":4752,"byteOffset":8235408,"target":34962},{"buffer":0,"byteLength":3168,"byteOffset":8240160,"target":34962},{"buffer":0,"byteLength":21504,"byteOffset":8243328,"target":34962},{"buffer":0,"byteLength":21504,"byteOffset":8264832,"target":34962},{"buffer":0,"byteLength":14336,"byteOffset":8286336,"target":34962},{"buffer":0,"byteLength":21504,"byteOffset":8300672,"target":34962},{"buffer":0,"byteLength":21504,"byteOffset":8322176,"target":34962},{"buffer":0,"byteLength":14336,"byteOffset":8343680,"target":34962},{"buffer":0,"byteLength":21504,"byteOffset":8358016,"target":34962},{"buffer":0,"byteLength":21504,"byteOffset":8379520,"target":34962},{"buffer":0,"byteLength":14336,"byteOffset":8401024,"target":34962}],"samplers":[{"magFilter":9729,"minFilter":9987}],"buffers":[{"byteLength":8415360,"uri":"mechanism.bin"}],"extensionsUsed":[]}
